<svg xmlns="http://www.w3.org/2000/svg" viewBox="0 0 180 180">
  <rect x="0" y="0" width="180" height="180" rx="40" fill="#1d9e75"/>
  <polygon points="90,18 22,68 158,68" fill="none" stroke="white" stroke-width="6" stroke-linejoin="round" stroke-linecap="round"/>
  <rect x="34" y="66" width="112" height="96" rx="5" fill="none" stroke="white" stroke-width="6"/>
  <ellipse cx="90" cy="138" rx="35" ry="20" fill="white"/>
  <path d="M118,138 Q132,128 138,120 Q136,132 130,142 Q136,150 138,158 Q132,148 118,142 Z" fill="white"/>
  <path d="M62,130 Q48,122 44,132 Q48,142 62,146 Z" fill="white"/>
  <path d="M90,120 Q102,112 110,118 Q106,126 96,128 Z" fill="white"/>
  <ellipse cx="72" cy="118" rx="24" ry="22" fill="white"/>
  <circle cx="64" cy="112" r="6" fill="#1d9e75"/>
  <circle cx="80" cy="112" r="6" fill="#1d9e75"/>
  <circle cx="62" cy="110" r="2" fill="white"/>
  <circle cx="78" cy="110" r="2" fill="white"/>
  <ellipse cx="72" cy="122" rx="4" ry="3" fill="#0f6e56"/>
  <path d="M66,126 Q72,131 78,126" fill="none" stroke="#0f6e56" stroke-width="2" stroke-linecap="round"/>
  <line x1="50" y1="120" x2="66" y2="122" stroke="#0f6e56" stroke-width="1.5" stroke-linecap="round"/>
  <line x1="49" y1="124" x2="66" y2="124" stroke="#0f6e56" stroke-width="1.5" stroke-linecap="round"/>
  <line x1="50" y1="128" x2="66" y2="126" stroke="#0f6e56" stroke-width="1.5" stroke-linecap="round"/>
  <line x1="78" y1="122" x2="94" y2="120" stroke="#0f6e56" stroke-width="1.5" stroke-linecap="round"/>
  <line x1="78" y1="124" x2="95" y2="124" stroke="#0f6e56" stroke-width="1.5" stroke-linecap="round"/>
  <line x1="78" y1="126" x2="94" y2="128" stroke="#0f6e56" stroke-width="1.5" stroke-linecap="round"/>
</svg>
